# xmcd
#
# Track frame offsets:
#	150
#	12147
#	24815
#	34832
#	47075
#	58652
#	68360
#	82412
#	93265
#	105972
#	116867
#	127687
#	138595
#	150492
#	161765
#	172430
#	183430
#	190882
#	201882
#	213287
#	225407
#	235597
#	249212
#	258895
#
# Disc length: 3588 seconds
# Revision: 3
# Processed by: cddbd v1.5.2PL0 Copyright (c) Steve Scherf et al.
# Submitted via: dBpowerAMP V12.0
#
DISCID=350e0218
DTITLE=Jerry Lee Lewis - Sings The Country Music Hall Of Fame Hits, Vols. 1-2
DYEAR=2002
DGENRE=Country
TTITLE0=I Wonder Where You Are Tonight
TTITLE1=Four Walls
TTITLE2=Sweet Dreams
TTITLE3=Born To Lose
TTITLE4=I Love You Because
TTITLE5=I'm So Lonesome I Could Cry
TTITLE6=Heartaches By The Number
TTITLE7=Oh Lonesome Me
TTITLE8=Jackson
TTITLE9=Jambalaya
TTITLE10=Mom And Dad's Waltz
TTITLE11=You've Still Got A Place In My Heart
TTITLE12=I Can't Stop Loving You
TTITLE13=More And More
TTITLE14=Pick Me Up On Your Way Down
TTITLE15=Cold Cold Heart
TTITLE16=Fraulein
TTITLE17=Why Don't You Love Me Like You Used To Do
TTITLE18=One Has My Name The Other Has My Heart
TTITLE19=Burning Memories
TTITLE20=He'll Have To Go
TTITLE21=It Makes No Difference Now
TTITLE22=I Get The Blues When It Rains
TTITLE23=Sweet Thang
EXTD=
EXTT0=
EXTT1=
EXTT2=
EXTT3=
EXTT4=
EXTT5=
EXTT6=
EXTT7=
EXTT8=
EXTT9=
EXTT10=
EXTT11=
EXTT12=
EXTT13=
EXTT14=
EXTT15=
EXTT16=
EXTT17=
EXTT18=
EXTT19=
EXTT20=
EXTT21=
EXTT22=
EXTT23=
PLAYORDER=
